# 3ds Max Wavefront OBJ Exporter v0.99 - (c)2007 guruware
# File Created: 03.01.2021 16:40:11

mtllib bucket.mtl

#
# object Cylinder001
#

v  -0.2549 0.0000 -11.3422
v  0.0481 0.0000 -10.8175
v  0.1533 0.0000 -10.2208
v  -1.5913 0.0000 -10.2208
v  -1.2883 0.0000 -11.9389
v  -0.7190 0.0000 -11.7317
v  -2.4635 0.0000 -11.7317
v  -1.8942 0.0000 -11.9389
v  -3.2306 0.0000 -10.8175
v  -2.9277 0.0000 -11.3422
v  -3.2306 0.0000 -9.6242
v  -3.3358 0.0000 -10.2208
v  -2.4635 0.0000 -8.7100
v  -2.9277 0.0000 -9.0995
v  -1.2883 0.0000 -8.5028
v  -1.8942 0.0000 -8.5028
v  -0.2549 0.0000 -9.0995
v  -0.7190 0.0000 -8.7100
v  0.0481 0.0000 -9.6242
v  0.0481 0.8394 -10.8175
v  0.1533 0.8394 -10.2208
v  -0.2549 0.8394 -11.3422
v  -0.7190 0.8394 -11.7317
v  -1.2883 0.8394 -11.9389
v  -1.8942 0.8394 -11.9389
v  -2.4635 0.8394 -11.7317
v  -2.9277 0.8394 -11.3422
v  -3.2306 0.8394 -10.8175
v  -3.3358 0.8394 -10.2208
v  -3.2306 0.8394 -9.6242
v  -2.9277 0.8394 -9.0995
v  -2.4635 0.8394 -8.7100
v  -1.8942 0.8394 -8.5028
v  -1.2883 0.8394 -8.5028
v  -0.7190 0.8394 -8.7100
v  -0.2549 0.8394 -9.0995
v  0.0481 0.8394 -9.6242
v  0.0481 1.6788 -10.8175
v  0.1533 1.6788 -10.2208
v  -0.2549 1.6788 -11.3422
v  -0.7190 1.6788 -11.7317
v  -1.2883 1.6788 -11.9389
v  -1.8942 1.6788 -11.9389
v  -2.4635 1.6788 -11.7317
v  -2.9277 1.6788 -11.3422
v  -3.2306 1.6788 -10.8175
v  -3.3358 1.6788 -10.2208
v  -3.2306 1.6788 -9.6242
v  -2.9277 1.6788 -9.0995
v  -2.4635 1.6788 -8.7100
v  -1.8942 1.6788 -8.5028
v  -1.2883 1.6788 -8.5028
v  -0.7190 1.6788 -8.7100
v  -0.2549 1.6788 -9.0995
v  0.0481 1.6788 -9.6242
v  0.0481 2.5182 -10.8175
v  0.1533 2.5182 -10.2208
v  -0.2549 2.5182 -11.3422
v  -0.7190 2.5182 -11.7317
v  -1.2883 2.5182 -11.9389
v  -1.8942 2.5182 -11.9389
v  -2.4635 2.5182 -11.7317
v  -2.9277 2.5182 -11.3422
v  -3.2306 2.5182 -10.8175
v  -3.3358 2.5182 -10.2208
v  -3.2306 2.5182 -9.6242
v  -2.9277 2.5182 -9.0995
v  -2.4635 2.5182 -8.7100
v  -1.8942 2.5182 -8.5028
v  -1.2883 2.5182 -8.5028
v  -0.7190 2.5182 -8.7100
v  -0.2549 2.5182 -9.0995
v  0.0481 2.5182 -9.6242
v  0.0481 3.3577 -10.8175
v  0.1533 3.3577 -10.2208
v  -0.2549 3.3577 -11.3422
v  -0.7190 3.3577 -11.7317
v  -1.2883 3.3577 -11.9389
v  -1.8942 3.3577 -11.9389
v  -2.4635 3.3577 -11.7317
v  -2.9277 3.3577 -11.3422
v  -3.2306 3.3577 -10.8175
v  -3.3358 3.3577 -10.2208
v  -3.2306 3.3577 -9.6242
v  -2.9277 3.3577 -9.0995
v  -2.4635 3.3577 -8.7100
v  -1.8942 3.3577 -8.5028
v  -1.2883 3.3577 -8.5028
v  -0.7190 3.3577 -8.7100
v  -0.2549 3.3577 -9.0995
v  0.0481 3.3577 -9.6242
v  0.0481 4.1971 -10.8175
v  0.1533 4.1971 -10.2208
v  -0.2549 4.1971 -11.3422
v  -0.7190 4.1971 -11.7317
v  -1.2883 4.1971 -11.9389
v  -1.8942 4.1971 -11.9389
v  -2.4635 4.1971 -11.7317
v  -2.9277 4.1971 -11.3422
v  -3.2306 4.1971 -10.8175
v  -3.3358 4.1971 -10.2208
v  -3.2306 4.1971 -9.6242
v  -2.9277 4.1971 -9.0995
v  -2.4635 4.1971 -8.7100
v  -1.8942 4.1971 -8.5028
v  -1.2883 4.1971 -8.5028
v  -0.7190 4.1971 -8.7100
v  -0.2549 4.1971 -9.0995
v  0.0481 4.1971 -9.6242
v  -1.5913 4.1971 -10.2208
# 110 vertices

vn 0.5687 -0.6700 -0.4772
vn 0.6976 -0.6700 -0.2539
vn 0.7424 -0.6699 0.0000
vn 0.0000 -1.0000 -0.0000
vn 0.1289 -0.6700 -0.7311
vn 0.3712 -0.6700 -0.6429
vn -0.3712 -0.6700 -0.6429
vn -0.1289 -0.6700 -0.7311
vn -0.6976 -0.6700 -0.2539
vn -0.5687 -0.6700 -0.4772
vn -0.6976 -0.6700 0.2539
vn -0.7424 -0.6700 -0.0000
vn -0.3712 -0.6700 0.6429
vn -0.5687 -0.6700 0.4772
vn 0.1289 -0.6700 0.7311
vn -0.1289 -0.6700 0.7311
vn 0.5687 -0.6700 0.4772
vn 0.3712 -0.6700 0.6429
vn 0.6976 -0.6700 0.2539
vn 0.9397 -0.0000 -0.3420
vn 1.0000 -0.0000 0.0000
vn 0.7660 -0.0000 -0.6428
vn 0.5000 -0.0000 -0.8660
vn 0.1736 -0.0000 -0.9848
vn -0.1736 -0.0000 -0.9848
vn -0.5000 -0.0000 -0.8660
vn -0.7660 -0.0000 -0.6428
vn -0.9397 -0.0000 -0.3420
vn -1.0000 -0.0000 0.0000
vn -0.9397 -0.0000 0.3420
vn -0.7660 -0.0000 0.6428
vn -0.5000 -0.0000 0.8660
vn -0.1736 -0.0000 0.9848
vn 0.1736 -0.0000 0.9848
vn 0.5000 -0.0000 0.8660
vn 0.7660 0.0000 0.6428
vn 0.9397 -0.0000 0.3420
vn 0.9397 0.0000 -0.3420
vn 1.0000 0.0000 0.0000
vn 0.7660 0.0000 -0.6428
vn 0.5000 0.0000 -0.8660
vn 0.1736 0.0000 -0.9848
vn -0.1736 0.0000 -0.9848
vn -0.5000 0.0000 -0.8660
vn -0.7660 0.0000 -0.6428
vn -0.9397 0.0000 -0.3420
vn -1.0000 0.0000 0.0000
vn -0.9397 0.0000 0.3420
vn -0.7660 0.0000 0.6428
vn -0.5000 0.0000 0.8660
vn -0.1736 0.0000 0.9848
vn 0.1736 0.0000 0.9848
vn 0.5000 0.0000 0.8660
vn 0.9397 0.0000 0.3420
vn -1.0000 -0.0000 -0.0000
vn 0.6976 0.6700 -0.2539
vn 0.7424 0.6699 0.0000
vn 0.5687 0.6700 -0.4772
vn 0.3712 0.6700 -0.6429
vn 0.1289 0.6700 -0.7311
vn -0.1289 0.6700 -0.7311
vn -0.3712 0.6700 -0.6429
vn -0.5687 0.6700 -0.4772
vn -0.6976 0.6700 -0.2539
vn -0.7424 0.6700 -0.0000
vn -0.6976 0.6700 0.2539
vn -0.5687 0.6700 0.4772
vn -0.3712 0.6700 0.6429
vn -0.1289 0.6700 0.7311
vn 0.1289 0.6700 0.7311
vn 0.3712 0.6700 0.6429
vn 0.5687 0.6700 0.4772
vn 0.6976 0.6700 0.2539
vn 0.0000 1.0000 -0.0000
# 74 vertex normals

vt 0.5000 0.0000 0.0000
vt 0.7500 0.0000 1.0000
vt 0.8056 0.0000 1.0000
vt 0.8611 0.0000 1.0000
vt 0.9167 0.0000 1.0000
vt 0.9722 0.0000 1.0000
vt 0.0278 0.0000 1.0000
vt 0.0833 0.0000 1.0000
vt 0.1389 0.0000 1.0000
vt 0.1944 0.0000 1.0000
vt 0.2500 0.0000 1.0000
vt 0.3056 0.0000 1.0000
vt 0.3611 0.0000 1.0000
vt 0.4167 0.0000 1.0000
vt 0.4722 0.0000 1.0000
vt 0.5278 0.0000 1.0000
vt 0.5833 0.0000 1.0000
vt 0.6389 0.0000 1.0000
vt 0.6944 0.0000 1.0000
vt 0.7500 0.2000 1.0000
vt 0.8056 0.2000 1.0000
vt 0.8611 0.2000 1.0000
vt 0.9167 0.2000 1.0000
vt 0.9722 0.2000 1.0000
vt 0.0278 0.2000 1.0000
vt 0.0833 0.2000 1.0000
vt 0.1389 0.2000 1.0000
vt 0.1944 0.2000 1.0000
vt 0.2500 0.2000 1.0000
vt 0.3056 0.2000 1.0000
vt 0.3611 0.2000 1.0000
vt 0.4167 0.2000 1.0000
vt 0.4722 0.2000 1.0000
vt 0.5278 0.2000 1.0000
vt 0.5833 0.2000 1.0000
vt 0.6389 0.2000 1.0000
vt 0.6944 0.2000 1.0000
vt 0.7500 0.4000 1.0000
vt 0.8056 0.4000 1.0000
vt 0.8611 0.4000 1.0000
vt 0.9167 0.4000 1.0000
vt 0.9722 0.4000 1.0000
vt 0.0278 0.4000 1.0000
vt 0.0833 0.4000 1.0000
vt 0.1389 0.4000 1.0000
vt 0.1944 0.4000 1.0000
vt 0.2500 0.4000 1.0000
vt 0.3056 0.4000 1.0000
vt 0.3611 0.4000 1.0000
vt 0.4167 0.4000 1.0000
vt 0.4722 0.4000 1.0000
vt 0.5278 0.4000 1.0000
vt 0.5833 0.4000 1.0000
vt 0.6389 0.4000 1.0000
vt 0.6944 0.4000 1.0000
vt 0.7500 0.6000 1.0000
vt 0.8056 0.6000 1.0000
vt 0.8611 0.6000 1.0000
vt 0.9167 0.6000 1.0000
vt 0.9722 0.6000 1.0000
vt 0.0278 0.6000 1.0000
vt 0.0833 0.6000 1.0000
vt 0.1389 0.6000 1.0000
vt 0.1944 0.6000 1.0000
vt 0.2500 0.6000 1.0000
vt 0.3056 0.6000 1.0000
vt 0.3611 0.6000 1.0000
vt 0.4167 0.6000 1.0000
vt 0.4722 0.6000 1.0000
vt 0.5278 0.6000 1.0000
vt 0.5833 0.6000 1.0000
vt 0.6389 0.6000 1.0000
vt 0.6944 0.6000 1.0000
vt 0.7500 0.8000 1.0000
vt 0.8056 0.8000 1.0000
vt 0.8611 0.8000 1.0000
vt 0.9167 0.8000 1.0000
vt 0.9722 0.8000 1.0000
vt 0.0278 0.8000 1.0000
vt 0.0833 0.8000 1.0000
vt 0.1389 0.8000 1.0000
vt 0.1944 0.8000 1.0000
vt 0.2500 0.8000 1.0000
vt 0.3056 0.8000 1.0000
vt 0.3611 0.8000 1.0000
vt 0.4167 0.8000 1.0000
vt 0.4722 0.8000 1.0000
vt 0.5278 0.8000 1.0000
vt 0.5833 0.8000 1.0000
vt 0.6389 0.8000 1.0000
vt 0.6944 0.8000 1.0000
vt 0.7500 1.0000 1.0000
vt 0.8056 1.0000 1.0000
vt 0.8611 1.0000 1.0000
vt 0.9167 1.0000 1.0000
vt 0.9722 1.0000 1.0000
vt 0.0278 1.0000 1.0000
vt 0.0833 1.0000 1.0000
vt 0.1389 1.0000 1.0000
vt 0.1944 1.0000 1.0000
vt 0.2500 1.0000 1.0000
vt 0.3056 1.0000 1.0000
vt 0.3611 1.0000 1.0000
vt 0.4167 1.0000 1.0000
vt 0.4722 1.0000 1.0000
vt 0.5278 1.0000 1.0000
vt 0.5833 1.0000 1.0000
vt 0.6389 1.0000 1.0000
vt 0.6944 1.0000 1.0000
vt 0.5000 1.0000 0.0000
vt -0.0278 0.0000 1.0000
vt -0.0278 0.0000 1.0000
vt -0.0278 0.2000 1.0000
vt -0.0278 0.2000 1.0000
vt -0.0278 0.4000 1.0000
vt -0.0278 0.4000 1.0000
vt -0.0278 0.6000 1.0000
vt -0.0278 0.6000 1.0000
vt -0.0278 0.8000 1.0000
vt -0.0278 0.8000 1.0000
vt -0.0278 1.0000 1.0000
vt 0.9708 1.0000 0.8794
# 122 texture coords

o Cylinder001
g Cylinder001
usemtl Material__108
s 1
f 1/4/1 2/3/2 3/2/3 4/1/4 
f 5/6/5 6/5/6 1/4/1 4/1/4 
f 7/8/7 8/7/8 5/111/5 4/1/4 
f 9/10/9 10/9/10 7/8/7 4/1/4 
f 11/12/11 12/11/12 9/10/9 4/1/4 
f 13/14/13 14/13/14 11/12/11 4/1/4 
f 15/16/15 16/15/16 13/14/13 4/1/4 
f 17/18/17 18/17/18 15/16/15 4/1/4 
f 3/2/3 19/19/19 17/18/17 4/1/4 
s 8
f 20/21/20 21/20/21 3/2/3 2/3/2 
f 22/22/22 20/21/20 2/3/2 1/4/1 
f 23/23/23 22/22/22 1/4/1 6/5/6 
f 24/24/24 23/23/23 6/5/6 5/6/5 
f 25/25/25 24/113/24 5/112/5 8/7/8 
f 26/26/26 25/25/25 8/7/8 7/8/7 
f 27/27/27 26/26/26 7/8/7 10/9/10 
f 28/28/28 27/27/27 10/9/10 9/10/9 
f 29/29/29 28/28/28 9/10/9 12/11/12 
f 30/30/30 29/29/29 12/11/12 11/12/11 
f 31/31/31 30/30/30 11/12/11 14/13/14 
f 32/32/32 31/31/31 14/13/14 13/14/13 
f 33/33/33 32/32/32 13/14/13 16/15/16 
f 34/34/34 33/33/33 16/15/16 15/16/15 
f 35/35/35 34/34/34 15/16/15 18/17/18 
f 36/36/36 35/35/35 18/17/18 17/18/17 
f 37/37/37 36/36/36 17/18/17 19/19/19 
f 21/20/21 37/37/37 19/19/19 3/2/3 
f 38/39/38 39/38/39 21/20/21 20/21/20 
f 40/40/40 38/39/38 20/21/20 22/22/22 
f 41/41/41 40/40/40 22/22/22 23/23/23 
f 42/42/42 41/41/41 23/23/23 24/24/24 
f 43/43/43 42/115/42 24/114/24 25/25/25 
f 44/44/44 43/43/43 25/25/25 26/26/26 
f 45/45/45 44/44/44 26/26/26 27/27/27 
f 46/46/46 45/45/45 27/27/27 28/28/28 
f 47/47/47 46/46/46 28/28/28 29/29/29 
f 48/48/48 47/47/47 29/29/29 30/30/30 
f 49/49/49 48/48/48 30/30/30 31/31/31 
f 50/50/50 49/49/49 31/31/31 32/32/32 
f 51/51/51 50/50/50 32/32/32 33/33/33 
f 52/52/52 51/51/51 33/33/33 34/34/34 
f 53/53/53 52/52/52 34/34/34 35/35/35 
f 54/54/36 53/53/53 35/35/35 36/36/36 
f 55/55/54 54/54/36 36/36/36 37/37/37 
f 39/38/39 55/55/54 37/37/37 21/20/21 
f 56/57/38 57/56/39 39/38/39 38/39/38 
f 58/58/40 56/57/38 38/39/38 40/40/40 
f 59/59/23 58/58/40 40/40/40 41/41/41 
f 60/60/42 59/59/23 41/41/41 42/42/42 
f 61/61/43 60/117/42 42/116/42 43/43/43 
f 62/62/26 61/61/43 43/43/43 44/44/44 
f 63/63/45 62/62/26 44/44/44 45/45/45 
f 64/64/46 63/63/45 45/45/45 46/46/46 
f 65/65/55 64/64/46 46/46/46 47/47/47 
f 66/66/48 65/65/55 47/47/47 48/48/48 
f 67/67/49 66/66/48 48/48/48 49/49/49 
f 68/68/50 67/67/49 49/49/49 50/50/50 
f 69/69/51 68/68/50 50/50/50 51/51/51 
f 70/70/52 69/69/51 51/51/51 52/52/52 
f 71/71/53 70/70/52 52/52/52 53/53/53 
f 72/72/36 71/71/53 53/53/53 54/54/36 
f 73/73/37 72/72/36 54/54/36 55/55/54 
f 57/56/39 73/73/37 55/55/54 39/38/39 
f 74/75/38 75/74/39 57/56/39 56/57/38 
f 76/76/40 74/75/38 56/57/38 58/58/40 
f 77/77/23 76/76/40 58/58/40 59/59/23 
f 78/78/42 77/77/23 59/59/23 60/60/42 
f 79/79/43 78/119/42 60/118/42 61/61/43 
f 80/80/26 79/79/43 61/61/43 62/62/26 
f 81/81/45 80/80/26 62/62/26 63/63/45 
f 82/82/46 81/81/45 63/63/45 64/64/46 
f 83/83/29 82/82/46 64/64/46 65/65/55 
f 84/84/48 83/83/29 65/65/55 66/66/48 
f 85/85/31 84/84/48 66/66/48 67/67/49 
f 86/86/32 85/85/31 67/67/49 68/68/50 
f 87/87/33 86/86/32 68/68/50 69/69/51 
f 88/88/34 87/87/33 69/69/51 70/70/52 
f 89/89/53 88/88/34 70/70/52 71/71/53 
f 90/90/36 89/89/53 71/71/53 72/72/36 
f 91/91/54 90/90/36 72/72/36 73/73/37 
f 75/74/39 91/91/54 73/73/37 57/56/39 
f 92/93/56 93/92/57 75/74/39 74/75/38 
f 94/94/58 92/93/56 74/75/38 76/76/40 
f 95/95/59 94/94/58 76/76/40 77/77/23 
f 96/96/60 95/95/59 77/77/23 78/78/42 
f 97/97/61 96/121/60 78/120/42 79/79/43 
f 98/98/62 97/97/61 79/79/43 80/80/26 
f 99/99/63 98/98/62 80/80/26 81/81/45 
f 100/100/64 99/99/63 81/81/45 82/82/46 
f 101/101/65 100/100/64 82/82/46 83/83/29 
f 102/102/66 101/101/65 83/83/29 84/84/48 
f 103/103/67 102/102/66 84/84/48 85/85/31 
f 104/104/68 103/103/67 85/85/31 86/86/32 
f 105/105/69 104/104/68 86/86/32 87/87/33 
f 106/106/70 105/105/69 87/87/33 88/88/34 
f 107/107/71 106/106/70 88/88/34 89/89/53 
f 108/108/72 107/107/71 89/89/53 90/90/36 
f 109/109/73 108/108/72 90/90/36 91/91/54 
f 93/92/57 109/109/73 91/91/54 75/74/39 
s 1
f 109/109/73 93/92/57 92/93/56 110/110/74 
f 92/93/56 94/94/58 95/95/59 110/110/74 
f 95/95/59 96/96/60 97/122/61 110/110/74 
f 97/97/61 98/98/62 99/99/63 110/110/74 
f 99/99/63 100/100/64 101/101/65 110/110/74 
f 101/101/65 102/102/66 103/103/67 110/110/74 
f 103/103/67 104/104/68 105/105/69 110/110/74 
f 105/105/69 106/106/70 107/107/71 110/110/74 
f 107/107/71 108/108/72 109/109/73 110/110/74 
# 108 polygons

